PathFileType	4	(X/Y/Z)	s04c0203.trc
DataRate	CameraRate	NumFrames	NumMarkers	Units	OrigDataRate	OrigDataStartFrame	OrigNumFrames
200	200	7	50	mm	200	1250	2000
Frame#	Time	racr			lacr			c7			jug			rlel			rdr			llel			ldr			s2			lic			ric			lasi			rasi			rpsi			lpsi			rgt			lgt			rth1			rth2			rth3			rth4			rlfc			rmfc			rsh1			rsh2			rsh3			rsh4			rlmal			rmmal			rcal			rtoe			rmt5			lth1			lth2			lth4			lth3			llfc			lmfc			lsh1			lsh2			lsh3			lsh4			llmal			lmmal			lcal			ltoe			lmt5			SBIKE			LBIKE			RBIKE			
		X1	Y1	Z1	X2	Y2	Z2	X3	Y3	Z3	X4	Y4	Z4	X5	Y5	Z5	X6	Y6	Z6	X7	Y7	Z7	X8	Y8	Z8	X9	Y9	Z9	X10	Y10	Z10	X11	Y11	Z11	X12	Y12	Z12	X13	Y13	Z13	X14	Y14	Z14	X15	Y15	Z15	X16	Y16	Z16	X17	Y17	Z17	X18	Y18	Z18	X19	Y19	Z19	X20	Y20	Z20	X21	Y21	Z21	X22	Y22	Z22	X23	Y23	Z23	X24	Y24	Z24	X25	Y25	Z25	X26	Y26	Z26	X27	Y27	Z27	X28	Y28	Z28	X29	Y29	Z29	X30	Y30	Z30	X31	Y31	Z31	X32	Y32	Z32	X33	Y33	Z33	X34	Y34	Z34	X35	Y35	Z35	X36	Y36	Z36	X37	Y37	Z37	X38	Y38	Z38	X39	Y39	Z39	X40	Y40	Z40	X41	Y41	Z41	X42	Y42	Z42	X43	Y43	Z43	X44	Y44	Z44	X45	Y45	Z45	X46	Y46	Z46	X47	Y47	Z47	X48	Y48	Z48	X49	Y49	Z49	X50	Y50	Z50	
1250	6.2500	508.543888	1312.675266	-156.212643	503.389724	1329.563503	-440.181074	487.240047	1395.755902	-301.964099	433.505969	1247.015033	-309.221002	456.417993	1051.281129	22.982243	686.157981	937.391478	-115.418041	458.035169	1079.756994	-590.675423	659.426311	914.823494	-473.761530	-79.387056	1172.948893	-285.656390	63.060956	1197.926959	-439.531791	74.096694	1181.205328	-119.427679	109.976785	1159.515204	-399.293097	121.814365	1137.532064	-165.330979	-49.729425	1214.288477	-239.969776	-55.257135	1225.599148	-314.677827	25.865773	1115.880298	-108.149925	49.511163	1128.392696	-471.554576	123.759643	983.241376	-80.669457	190.981835	925.722756	-80.798898	222.668735	846.248796	-80.219744	219.185130	945.814524	-95.034723	287.699740	716.528287	-96.448394	280.063142	699.639460	-210.799483	208.688915	616.453755	-80.422310	178.919040	532.719353	-100.479596	110.737692	481.289723	-116.158587	208.614016	517.929488	-120.627777	34.791998	348.824097	-131.338587	68.026564	348.476910	-212.826311	-34.643316	347.859169	-180.015058	224.476641	192.208135	-154.049649	149.593099	202.534182	-106.046958	121.841119	1069.774309	-476.964331	207.399055	1056.592026	-476.966741	221.533112	1088.019734	-464.836941	276.499089	1000.273692	-479.633629	411.782857	911.586703	-454.179165	441.732737	893.679201	-342.829020	386.917602	800.650785	-478.650549	371.953216	716.091750	-460.297196	317.310579	646.217778	-460.334765	397.487721	708.048347	-431.576882	252.534213	513.370454	-455.774081	248.483576	521.833055	-369.356964	169.348744	493.647386	-417.639808	468.064853	463.094204	-416.864714	397.535740	428.188674	-480.048229	-184.768175	929.767548	-286.726463	-17.140433	79.559175	-485.864451	-17.461704	79.287215	-84.757835	
1251	6.2550	507.851292	1312.656010	-156.044424	503.001877	1329.867921	-440.505640	486.788600	1396.013067	-301.579732	432.872430	1247.353288	-309.175095	455.358798	1050.548894	22.544657	685.266960	936.456842	-115.091143	457.108719	1080.019348	-590.636685	658.097120	914.630326	-473.719433	-79.440381	1171.282643	-286.199523	63.511911	1196.223778	-440.227393	74.162771	1180.010474	-119.789444	110.167488	1157.604259	-399.251254	121.945307	1136.430173	-165.816759	-49.906628	1212.942940	-240.279896	-56.217229	1221.653212	-312.770557	26.181356	1114.926609	-108.146431	50.175045	1123.303141	-471.320742	126.542449	984.648237	-81.411508	194.850635	928.440175	-81.494016	228.117083	849.796802	-79.714879	222.456464	949.168624	-95.861747	294.311801	720.644847	-94.900999	286.589835	703.804306	-209.325261	213.071063	622.277936	-79.401884	181.224368	539.347187	-99.763175	111.707951	489.740553	-115.764954	210.558742	523.854519	-119.983806	32.615476	359.429645	-131.597653	66.177485	358.313045	-212.940476	-36.430564	360.135424	-180.233207	218.403944	197.708956	-153.715643	143.489988	210.140683	-106.227126	122.433454	1063.505139	-476.522226	207.757706	1048.705760	-476.702063	222.542331	1080.016753	-465.071296	275.514314	990.888784	-478.215538	408.958571	899.484599	-452.279508	438.095661	880.223201	-342.373128	385.041274	786.750323	-476.839807	371.085150	701.968786	-458.460969	317.468970	631.303390	-458.921269	396.643148	694.153880	-429.414883	254.887762	499.067700	-455.858544	250.482641	507.290424	-368.847486	171.955206	476.517168	-417.891001	472.009293	457.940519	-416.956774	402.967382	420.178619	-480.102310	-184.891661	929.669792	-286.296140	-17.152101	79.490864	-485.838321	-17.469624	79.274251	-84.753920	
1252	6.2600	507.242340	1312.867650	-155.641036	502.723636	1330.190535	-440.654480	486.398482	1396.270818	-300.975921	432.424410	1247.639866	-308.754273	454.262239	1049.888636	21.983885	684.254355	935.427338	-115.014588	456.148937	1080.341870	-590.663415	656.814805	914.489934	-473.563562	-79.123054	1169.675855	-286.280763	63.886853	1194.298171	-440.776581	74.117746	1178.609276	-120.126932	110.440281	1155.582105	-399.255710	123.174137	1135.322102	-165.921083	-49.952805	1211.354495	-240.561438	-55.752847	1219.941842	-313.439329	26.648139	1113.877540	-108.127779	50.885725	1117.809301	-471.039930	129.265665	986.296480	-82.159117	198.683839	931.248681	-81.993850	233.448592	853.314108	-79.237612	225.798499	952.278320	-96.561184	300.466752	724.733370	-93.396638	292.772921	708.149026	-207.975224	217.567133	627.936047	-78.321035	183.540820	545.907428	-99.159400	112.885300	498.091895	-115.327559	212.636793	529.851734	-119.309107	30.941280	370.388322	-131.961993	64.523939	368.208718	-213.176880	-38.668028	372.592532	-181.278369	212.865722	204.108865	-153.238069	137.886894	218.250858	-106.307348	123.084415	1057.094046	-476.279519	208.188135	1040.715774	-476.443636	223.572858	1072.017926	-465.443668	274.778439	981.695840	-477.414386	405.777720	887.360412	-450.992020	434.898278	867.289137	-342.560729	382.887787	772.838898	-475.087294	370.285092	687.831655	-456.855815	317.891616	616.228069	-457.630855	395.619498	680.573585	-427.439989	257.607894	484.844346	-455.498664	253.049641	492.901675	-368.304733	175.345624	459.786949	-417.501077	475.787981	451.659482	-417.083562	408.041538	411.544449	-480.158749	-184.848128	929.711866	-286.266886	-17.463760	79.103588	-485.491487	-17.462346	79.213239	-84.734310	
1253	6.2650	506.654537	1313.172485	-155.215082	502.494128	1330.420950	-440.759921	486.033648	1396.587189	-300.194975	431.989416	1247.991355	-308.188284	453.168077	1049.303874	21.298285	683.177648	934.334652	-115.210824	455.224950	1080.674496	-590.710623	655.636678	914.452232	-473.456246	-78.457663	1166.937901	-286.136161	64.181714	1192.139304	-441.241595	74.270788	1177.082484	-120.887293	110.801296	1153.455827	-399.315377	123.557807	1134.210135	-166.522415	-50.044558	1209.611280	-240.851048	-55.383748	1217.873967	-314.066459	27.187991	1112.725129	-108.123619	51.693423	1112.108767	-470.724376	132.001844	987.614823	-82.939353	202.313924	933.978672	-82.555379	238.570953	856.772278	-78.722997	229.040514	955.203562	-97.228769	306.298661	728.637690	-91.965991	298.536606	712.249528	-206.884560	221.772748	633.549747	-77.243123	185.965979	552.345576	-98.460570	114.155509	506.380919	-114.938683	214.698024	535.805073	-118.762904	29.065080	380.955043	-132.313843	62.779997	378.240885	-213.568566	-40.409618	384.896487	-181.983621	207.486713	210.977677	-153.295215	132.806608	226.844974	-106.338487	124.003143	1050.754526	-476.208968	208.610535	1032.693716	-475.979915	224.728299	1064.115729	-465.773642	274.203572	972.752385	-476.877723	402.185640	875.248117	-450.908326	431.413793	854.874504	-340.561891	380.461948	759.424160	-474.308603	369.692663	674.257366	-455.602766	319.012782	601.496799	-456.437649	394.843236	667.974316	-425.782618	260.553160	471.162436	-455.028139	256.166870	478.834566	-367.629528	179.010485	443.898868	-416.977109	479.551441	444.337670	-417.180702	412.816661	402.343662	-480.062798	-184.731766	929.700830	-286.266048	-17.479903	79.030943	-485.445780	-17.451461	79.221879	-84.747887	
1254	6.2700	506.106654	1313.616075	-154.773567	502.306243	1330.521474	-440.801532	485.739544	1396.804851	-299.401353	431.614272	1248.238467	-307.429141	452.124706	1048.743971	20.526405	682.162986	933.311152	-115.459803	454.354967	1080.958581	-590.837663	654.600370	914.469441	-473.212126	-78.475004	1164.728799	-286.311031	64.435004	1190.100005	-441.867827	74.692519	1175.808060	-121.146223	111.256682	1151.232629	-399.439264	124.002770	1133.224379	-167.133759	-50.211745	1207.695516	-241.182366	-55.368007	1215.580198	-314.421901	27.960927	1111.508622	-108.074077	52.555299	1106.304667	-470.412699	134.641783	989.259237	-83.681052	205.845837	936.641623	-82.948092	243.443161	860.270055	-78.130277	231.739262	958.160221	-98.386162	311.720759	732.440398	-90.631318	304.425917	715.972640	-205.619459	225.947040	639.134794	-76.254795	188.310017	558.873823	-97.825415	115.505760	514.550727	-114.587742	216.656052	541.802706	-118.300971	27.030808	391.564380	-132.975864	61.311896	388.243879	-214.006184	-41.881609	397.020583	-182.731711	202.637609	218.554713	-153.090486	128.187000	235.955950	-106.411113	124.883678	1044.701571	-476.290189	209.193163	1025.199448	-475.952675	225.961556	1056.639748	-466.338153	273.676455	964.204897	-476.430810	399.133988	864.376378	-449.532746	426.811911	843.552573	-340.559707	377.780127	748.229416	-473.966049	369.395312	662.930188	-454.779932	321.036880	588.743513	-455.109424	394.931453	657.378794	-425.174321	263.686224	457.808388	-454.549796	259.215847	465.048622	-366.995380	182.299400	428.877772	-416.724194	483.111139	436.216525	-416.901040	417.286491	392.798212	-479.856115	-184.573725	929.685143	-286.196934	-17.448509	79.009106	-485.421187	-17.192268	78.937465	-84.801310	
1255	6.2750	505.653619	1313.971930	-154.366477	502.217282	1330.537793	-440.776738	485.455609	1397.026424	-298.542862	431.366954	1248.453375	-306.723717	451.145077	1048.370311	19.844009	681.205716	932.510453	-115.891518	453.598094	1081.156650	-590.758571	653.616815	914.589977	-472.977725	-77.996243	1162.454215	-287.605200	64.767105	1188.246050	-442.610874	75.135189	1174.620992	-121.436242	111.812572	1148.919840	-399.636258	124.510229	1132.347307	-167.677379	-50.408709	1205.865298	-241.349602	-56.123664	1213.358541	-314.346461	28.782294	1110.439601	-108.013424	53.377185	1100.652899	-469.917510	137.175144	990.661295	-84.265012	209.178511	939.339989	-83.242975	248.084683	863.706453	-77.443759	234.665182	960.974832	-98.959583	316.881083	736.325087	-89.383362	310.131145	719.603647	-204.372966	229.858673	644.761855	-75.398577	190.613204	565.340557	-97.286272	116.853499	522.801359	-114.429440	218.570771	547.735502	-118.089234	25.467126	402.315115	-133.616357	59.977718	398.493690	-214.571285	-43.172186	408.951430	-183.529197	198.256656	226.625356	-153.127797	124.075908	245.347535	-106.569090	125.711846	1039.288861	-476.704272	209.778300	1018.144920	-475.922202	227.082042	1049.279797	-466.538415	273.201283	955.826626	-475.673010	395.707348	853.788210	-449.023644	423.191321	833.783682	-339.677054	375.726035	737.747771	-473.243691	368.862234	652.393876	-454.125107	321.986871	577.441192	-454.290022	394.794018	647.237794	-424.723246	266.369574	445.068621	-454.201039	261.863496	451.917969	-366.528010	185.899259	415.004946	-417.094696	486.234178	427.688784	-416.629158	421.178251	383.118446	-479.622366	-184.466587	929.657486	-286.119212	-17.408455	79.009487	-485.425233	-17.414068	79.206780	-84.724865	
1256	6.2800	505.326067	1314.249984	-153.879538	502.290123	1330.475142	-440.723626	485.259034	1397.231712	-297.863250	431.284834	1248.621330	-306.153181	450.277625	1048.042986	19.222242	680.497917	931.866640	-116.141477	452.747662	1081.423729	-591.008274	652.690112	914.746811	-472.643180	-77.930407	1160.419351	-287.878148	65.221954	1186.581756	-443.587094	75.603354	1173.389137	-121.780625	112.423675	1147.387370	-400.299961	125.111408	1131.625684	-168.253916	-50.628894	1204.087821	-241.396556	-56.926713	1211.006259	-314.087332	29.698253	1109.308287	-107.983182	54.054912	1095.417422	-469.383044	139.481713	992.316553	-84.685636	212.281158	942.036902	-83.366399	252.414465	867.111190	-76.788299	237.654369	964.250779	-98.318357	321.881066	740.121869	-88.496147	315.589242	723.135607	-203.180838	233.584389	650.470016	-74.695595	192.463596	572.033352	-97.305811	118.231280	531.040451	-114.409636	221.487912	554.279646	-117.700881	24.320788	413.067231	-134.214826	58.783358	408.748733	-215.183745	-44.145387	420.856741	-184.095595	194.653810	235.116711	-153.207917	120.739761	255.039856	-106.674000	126.581333	1033.995150	-477.165992	210.244208	1011.303883	-475.887837	228.097651	1042.205389	-466.654084	272.695927	947.995253	-474.839651	391.773351	844.196032	-448.798914	419.267538	825.029974	-338.542019	373.745222	727.751454	-472.490758	368.074853	642.119057	-453.657850	322.187839	566.551090	-454.135269	394.009173	637.303528	-424.230132	268.720816	432.861016	-454.080764	263.807974	439.690384	-366.819632	188.665909	400.959403	-416.498569	488.871823	418.588839	-416.444794	424.479767	373.193004	-479.465396	-184.367078	929.632172	-286.108839	-17.401027	79.008811	-485.416372	-17.166897	78.900025	-84.786503	
